<svg width="16" height="16" viewBox="0 0 16 16" fill="none" xmlns="http://www.w3.org/2000/svg">
    <rect width="16" height="16" rx="2" transform="matrix(-1 0 0 1 16 0)" fill="#FFDD00" />
    <g clip-path="url(#clipPath)">
        <path fill="#0D0C22" d="M4.84063 4.69246L4.84857 4.68779L4.86694 4.68219C4.85955 4.68843 4.8503 4.69205 4.84063 4.69246Z" />
        <path fill="#0D0C22" d="M4.83554 4.69161C4.83723 4.69139 4.83889 4.691 4.8405 4.69043C4.8406 4.69153 4.8406 4.69264 4.8405 4.69374C4.83869 4.6935 4.83696 4.69276 4.83554 4.69161Z" />
        <path fill="#0D0C22" d="M4.84058 4.69332H4.8382V4.69183L4.84058 4.69332Z" />
        <path fill="#0D0C22" d="M4.73206 5.51788L4.71866 5.51025L4.71368 5.50745L4.70916 5.50262C4.71766 5.50628 4.7254 5.51146 4.73206 5.51788Z" />
        <path fill="#0D0C22" d="M4.81752 4.71052L4.83061 4.69806L4.83948 4.69324C4.83471 4.70165 4.82683 4.70786 4.81752 4.71052Z" />
        <path fill="#0D0C22" d="M8.10838 12.7347C8.11883 12.7392 8.12799 12.7463 8.13501 12.7552L8.12676 12.75C8.12115 12.7448 8.11321 12.7388 8.10838 12.7347Z" />
        <path fill="#0D0C22" d="M6.19745 12.3586C6.19745 12.3469 6.2032 12.3491 6.20181 12.391C6.20181 12.3877 6.20041 12.3843 6.19978 12.381C6.199 12.3735 6.19838 12.3662 6.19745 12.3586Z" />
        <path fill="#0D0C22" d="M6.39562 12.7347C6.40607 12.7392 6.41522 12.7463 6.42224 12.7552L6.41399 12.75C6.40839 12.7448 6.40044 12.7388 6.39562 12.7347Z" />
        <path fill="#0D0C22" d="M9.45427 12.8241C9.46221 12.8172 9.47192 12.8127 9.4823 12.811C9.47389 12.815 9.46549 12.8191 9.45988 12.8222L9.45427 12.8241Z" />
        <path fill="#0D0C22" d="M9.75713 12.534C9.75837 12.5218 9.76213 12.51 9.76819 12.4992C9.7639 12.5103 9.76032 12.5218 9.75745 12.5334L9.75713 12.534Z" />
        <path fill="#FFDD00" d="M7.72292 7.34691C8.13868 7.52489 8.6105 7.72669 9.22199 7.72669C9.47779 7.72619 9.73236 7.69109 9.97876 7.62237L9.55584 11.9645C9.54087 12.1459 9.45819 12.3152 9.32423 12.4385C9.19026 12.5619 9.0148 12.6303 8.83271 12.6303C8.83271 12.6303 8.23305 12.6614 8.03295 12.6614C7.8176 12.6614 7.17185 12.6303 7.17185 12.6303C6.98977 12.6303 6.81436 12.5618 6.68042 12.4384C6.54649 12.3151 6.46384 12.1459 6.44887 11.9645L5.9959 7.16628C6.19833 7.09714 6.40262 7.05121 6.63292 7.05121C7.03124 7.05105 7.35217 7.18824 7.72292 7.34691Z" />
        <path fill="#0D0C22" d="M11.2878 5.49438L11.2807 5.50108L11.276 5.50389C11.2796 5.50031 11.2836 5.49713 11.2878 5.49438Z" />
        <path fill="#0D0C22" d="M4.04012 5.09366L4.1038 4.77242C4.16095 4.48419 4.29066 4.21185 4.58652 4.10767C4.68135 4.07434 4.78895 4.06003 4.86166 3.99104C4.93438 3.92206 4.95587 3.81493 4.97269 3.71558C5.00384 3.53324 5.0331 3.35074 5.06503 3.16871C5.09259 3.01222 5.11439 2.83642 5.18617 2.69285C5.2796 2.50008 5.47347 2.38734 5.66624 2.31275C5.76502 2.27588 5.86583 2.24468 5.96817 2.21932C6.4498 2.09226 6.95618 2.04555 7.45166 2.01892C8.04638 1.9861 8.64269 1.99599 9.236 2.0485C9.6776 2.08868 10.1427 2.13726 10.5624 2.29002C10.7157 2.34592 10.8738 2.41303 10.9904 2.53153C11.1335 2.67712 11.1802 2.90229 11.0758 3.08385C11.0015 3.21278 10.8757 3.30387 10.7422 3.36414C10.5684 3.44178 10.3869 3.50087 10.2006 3.54041C9.68212 3.65501 9.14506 3.70001 8.61532 3.71917C8.02817 3.74286 7.44009 3.72366 6.85575 3.6617C6.71124 3.64582 6.567 3.62677 6.42301 3.60456C6.25344 3.57855 6.1446 3.35681 6.19458 3.20234C6.25438 3.01767 6.41508 2.94605 6.59679 2.97392C6.62357 2.97812 6.6502 2.98201 6.67699 2.9859L6.69629 2.98871C6.75785 2.9965 6.81941 3.00376 6.88097 3.01051C7.00814 3.02421 7.13561 3.03542 7.2634 3.04414C7.54961 3.06407 7.83659 3.07326 8.12341 3.07373C8.40526 3.07373 8.68726 3.06578 8.96848 3.04726C9.09679 3.03885 9.22479 3.02815 9.35247 3.01518C9.41055 3.0091 9.46848 3.00272 9.5264 2.99556L9.58153 2.98855L9.59351 2.98684L9.65066 2.97859C9.76745 2.96099 9.88424 2.94075 9.99977 2.9163C10.0114 2.91371 10.0219 2.90723 10.0293 2.89791C10.0368 2.8886 10.0409 2.87701 10.0409 2.86507C10.0409 2.85313 10.0368 2.84154 10.0293 2.83223C10.0219 2.82291 10.0114 2.81643 9.99977 2.81384H9.99759C9.89747 2.79251 9.79657 2.77429 9.69536 2.75841C9.66161 2.75311 9.62777 2.74792 9.59383 2.74283H9.5929C9.52952 2.73863 9.46583 2.72726 9.40277 2.71979C8.85408 2.66272 8.30214 2.64326 7.75079 2.66155C7.48312 2.66934 7.2156 2.68506 6.94918 2.71216C6.89187 2.71808 6.83488 2.7243 6.77789 2.73131C6.75609 2.73396 6.73414 2.73707 6.71217 2.73972L6.66795 2.7461C6.53902 2.76531 6.41077 2.78861 6.28319 2.81602C6.09414 2.85713 5.85138 2.87052 5.7673 3.07762C5.74052 3.14333 5.72837 3.21636 5.71358 3.28534L5.69474 3.37332C5.69424 3.3749 5.69388 3.37652 5.69365 3.37814C5.64911 3.58576 5.60452 3.79338 5.55989 4.001C5.55661 4.01634 5.55654 4.03219 5.55967 4.04756C5.56279 4.06293 5.56904 4.07748 5.57805 4.09033C5.58704 4.10318 5.5986 4.11403 5.61197 4.12221C5.62536 4.13039 5.64027 4.13572 5.65581 4.13788H5.65706L5.68431 4.14162L5.71124 4.14519C5.79658 4.15631 5.88201 4.16669 5.96755 4.17634C6.13604 4.19555 6.30478 4.21215 6.47377 4.22617C6.8096 4.25409 7.1461 4.27242 7.48328 4.28114C7.65508 4.2857 7.82683 4.28784 7.99853 4.28752C8.68196 4.28699 9.36481 4.24726 10.0437 4.16855C10.1172 4.15984 10.1907 4.15049 10.2642 4.141C10.2072 4.14832 10.3056 4.13538 10.3255 4.13259C10.3722 4.12604 10.419 4.11925 10.4657 4.11219C10.6225 4.08867 10.7783 4.05971 10.9348 4.03433C11.124 4.00319 11.305 4.01876 11.4761 4.11219C11.6166 4.18906 11.7303 4.30693 11.802 4.45009C11.8758 4.60269 11.8978 4.76883 11.9308 4.93281C11.9638 5.09677 12.0152 5.27319 11.9957 5.44152C11.9538 5.8048 11.6999 6.10004 11.3346 6.16606C10.9909 6.22834 10.6454 6.2788 10.2989 6.32177C8.93791 6.48846 7.56295 6.5084 6.19769 6.38126C6.08652 6.37088 5.97549 6.35956 5.86462 6.34731C5.82999 6.34351 5.79495 6.34749 5.76206 6.35899C5.72918 6.37048 5.69928 6.38918 5.67455 6.41373C5.64983 6.43827 5.63091 6.46804 5.61918 6.50083C5.60745 6.53364 5.6032 6.56865 5.60676 6.6033L5.64133 6.93934C5.71099 7.61835 5.78064 8.29732 5.8503 8.97623C5.92296 9.6892 5.9961 10.4021 6.0697 11.1149C6.09046 11.3157 6.11122 11.5165 6.13198 11.7171C6.15192 11.9147 6.15471 12.1186 6.19224 12.3138C6.25142 12.6209 6.45929 12.8095 6.76262 12.8785C7.04052 12.9417 7.32442 12.9749 7.6094 12.9775C7.92535 12.9792 8.24113 12.9652 8.55708 12.9669C8.89436 12.9688 9.30747 12.9376 9.56782 12.6866C9.79657 12.4662 9.82818 12.1209 9.85932 11.8224C9.90084 11.4271 9.942 11.032 9.98281 10.6369L10.2117 8.43995L10.3598 7.01844C10.3623 6.99493 10.3648 6.97173 10.3671 6.94805C10.3849 6.77849 10.5049 6.6125 10.6941 6.62106C10.856 6.62822 11.0401 6.76587 11.0211 6.94805L10.9113 8.00194L10.6843 10.1819C10.6196 10.8012 10.5551 11.4205 10.4907 12.0399C10.4783 12.1586 10.4666 12.2776 10.4535 12.3962C10.3824 13.0446 9.88719 13.394 9.27399 13.4924C8.91585 13.55 8.54899 13.5619 8.18555 13.5678C7.71965 13.5753 7.24908 13.5932 6.79081 13.5088C6.11174 13.3842 5.60224 12.9308 5.52953 12.2274C5.50876 12.0243 5.488 11.8213 5.46724 11.6181C5.39821 10.9462 5.32928 10.2743 5.26045 9.60236L5.03528 7.4068L4.93204 6.40057C4.92691 6.35067 4.90584 6.30375 4.87195 6.26677C4.83808 6.22978 4.79319 6.20468 4.74395 6.19518C4.54977 6.15734 4.36415 6.09271 4.22604 5.94494C4.00617 5.70966 3.96242 5.4029 4.04012 5.09366ZM11.3445 5.31072C11.3416 5.30932 11.347 5.3347 11.3494 5.34653C11.3498 5.32862 11.3489 5.31274 11.3445 5.31072ZM11.3257 5.45647C11.3241 5.45537 11.3195 5.46161 11.3146 5.46909C11.3219 5.46223 11.3266 5.45709 11.3258 5.45647H11.3257ZM11.3072 5.48091C11.3005 5.49228 11.2969 5.49945 11.3072 5.48091V5.48091ZM11.2699 5.51112H11.269C11.269 5.51222 11.2673 5.5133 11.2667 5.5144C11.2677 5.51319 11.2688 5.5121 11.2701 5.51112H11.2699ZM4.75298 5.46596C4.82273 5.5323 4.92785 5.56313 5.03171 5.57855C6.19645 5.75139 7.37816 5.8389 8.55568 5.80029C9.39841 5.77148 10.2323 5.67789 11.0666 5.56002C11.1483 5.5485 11.2369 5.53355 11.2931 5.47328C11.399 5.35961 11.347 5.13071 11.3195 4.99338C11.2942 4.86756 11.246 4.69985 11.0963 4.68195C10.8627 4.65454 10.5915 4.7531 10.3604 4.78814C10.0822 4.8306 9.80295 4.8646 9.52267 4.89014C8.32647 4.99914 7.11018 4.98216 5.91928 4.82271C5.70222 4.79354 5.48593 4.75965 5.27042 4.72103C5.07842 4.68661 4.86556 4.622 4.74955 4.82084C4.66998 4.95632 4.65939 5.13756 4.67169 5.29063C4.67548 5.35732 4.70462 5.42004 4.75313 5.46596H4.75298Z" />
    </g>
    <defs>
        <clipPath id="clipPath">
            <rect width="8" height="11.5747" fill="white" transform="matrix(-1 0 0 1 12 2)" />
        </clipPath>
    </defs>
</svg>
