<svg width="16" height="16" viewBox="0 0 16 16" fill="none" xmlns="http://www.w3.org/2000/svg">
    <path fill="#88AEDC" fill-rule="evenodd" clip-rule="evenodd" d="M15.9346 11.9605L10.7812 15.9285H13.9935L15.9346 14.434V11.9605Z" />
    <path fill="#F58F8E" d="M0.00268555 0.0646973V2.11814L2.66958 0.0646973H0.00268555Z" />
    <path fill="#FEE18A" d="M2.66958 0.0646973L0.00268555 2.11814V4.5624L5.84439 0.0646973H2.66958Z" />
    <path fill="#F3F095" d="M5.84439 0.0646973L0.00268555 4.5624V7.04751L9.0723 0.0646973H5.84439Z" />
    <path fill="#55C1AE" d="M9.07367 0.0646973L0.00268555 7.04887V9.47202L12.2206 0.0646973H9.07367Z" />
    <path fill="#F7B3CE" d="M15.9346 0.0646973H15.4328L0.00268555 11.9455V14.3918L15.9346 2.12427V0.0646973Z" />
    <path fill="#88AEDC" d="M12.2206 0.0646973L0.00268555 9.47202V11.9455L15.4328 0.0646973H12.2206Z" />
    <path fill="#F58F8E" d="M15.9346 2.12427L0.00268555 14.3918V15.9285H1.23026L15.9346 4.60597V2.12427Z" />
    <path fill="#FEE18A" d="M15.9346 4.60596L1.23022 15.9285H4.40503L15.9346 7.05089V4.60596Z" />
    <path fill="#F3F095" d="M15.9346 7.0509L4.40503 15.9285H7.63294L15.9346 9.53601V7.0509Z" />
    <path fill="#55C1AE" d="M15.9347 9.53735L7.6344 15.9285H10.7813L15.9347 11.9605V9.53735Z" />
    <path fill="#F7B3CE" d="M15.9346 14.4341L13.9935 15.9285H15.9346V14.4341Z" />
    <path fill="white" fill-rule="evenodd" clip-rule="evenodd" d="M4.44169 5.29362C4.74903 5.3583 4.97099 5.48426 5.19978 5.72255C5.40808 5.94043 5.53784 6.18894 5.59248 6.46809C5.63687 6.70298 5.63687 9.22894 5.59248 9.46723C5.47638 10.0868 4.94708 10.5702 4.29144 10.6553C4.15485 10.6723 3.69727 10.6894 3.28066 10.6894H2.51917V5.24255H3.36603C3.96704 5.24255 4.27437 5.25617 4.44169 5.29362ZM3.50946 7.96596V9.70894L3.86118 9.69532C4.1651 9.68511 4.22998 9.67149 4.36657 9.59319C4.63292 9.4366 4.63634 9.42638 4.63634 7.94553C4.63634 6.50213 4.63634 6.50213 4.38706 6.33872C4.26413 6.25702 4.2129 6.24681 3.87825 6.23319L3.50946 6.22298V7.96596Z" />
    <path fill="white" fill-rule="evenodd" clip-rule="evenodd" d="M8.90482 5.73617V6.22979H7.16327V7.45532H8.22186V8.44255H7.16327L7.1701 9.06213L7.18035 9.68511L8.04429 9.69532L8.90482 9.70213V10.6894H7.89745C6.7774 10.6894 6.60325 10.6689 6.42568 10.5123C6.1764 10.2945 6.19006 10.434 6.17981 8.04085C6.17298 6.54979 6.18323 5.84511 6.20713 5.74979C6.25494 5.57277 6.45641 5.35489 6.63398 5.29362C6.73984 5.25617 7.00619 5.24596 7.8394 5.24255H8.90482V5.73617Z" />
    <path fill="white" fill-rule="evenodd" clip-rule="evenodd" d="M11.0596 7.15575C11.3123 8.12596 11.524 8.89872 11.5308 8.87489C11.5411 8.85106 11.7562 8.03064 12.0123 7.04681L12.4801 5.25957L13.0128 5.24936C13.4158 5.24255 13.549 5.25277 13.549 5.2834C13.549 5.31404 12.3674 9.79064 12.2991 10.0153C12.2513 10.1719 11.9952 10.4919 11.8518 10.577C11.6708 10.6791 11.4045 10.6962 11.2405 10.6111C11.0937 10.5362 10.8991 10.3115 10.8 10.1004C10.7386 9.97106 9.73463 6.28766 9.50242 5.33447L9.47852 5.24255H10.0112C10.5337 5.24255 10.5473 5.24255 10.5747 5.31745C10.5883 5.3617 10.8069 6.18894 11.0596 7.15575Z" />
</svg>
