<svg width="16" height="16" viewBox="0 0 16 16" fill="none" xmlns="http://www.w3.org/2000/svg">
    <g clip-path="url(#clipPath)">
        <path fill="url(#paintRadial1)" d="M12.4499 15.9916L3.56567 16C1.61115 16.0018 0.0106625 14.4044 0.00844149 12.4499L1.48091e-06 3.56567C-0.00177536 1.61115 1.5956 0.0106625 3.55013 0.00844149L12.4343 1.48091e-06C14.3888 -0.00177536 15.9893 1.5956 15.9916 3.55013L16 12.4343C16.0022 14.3893 14.4044 15.9898 12.4499 15.9916Z" />
        <path fill="url(#paintRadial2)" d="M12.4499 15.9916L3.56567 16C1.61115 16.0018 0.0106625 14.4044 0.00844149 12.4499L1.48091e-06 3.56567C-0.00177536 1.61115 1.5956 0.0106625 3.55013 0.00844149L12.4343 1.48091e-06C14.3888 -0.00177536 15.9893 1.5956 15.9916 3.55013L16 12.4343C16.0022 14.3893 14.4044 15.9898 12.4499 15.9916Z" />
        <path fill="white" d="M8.00041 11.1308C6.2719 11.1308 4.86499 9.72436 4.86499 7.9954C4.86499 6.26644 6.2719 4.85999 8.00041 4.85999C9.72892 4.85999 11.1358 6.26644 11.1358 7.9954C11.1358 9.72436 9.72892 11.1308 8.00041 11.1308ZM8.00041 5.75582C6.7655 5.75582 5.76082 6.7605 5.76082 7.9954C5.76082 9.23031 6.7655 10.235 8.00041 10.235C9.23531 10.235 10.24 9.23031 10.24 7.9954C10.24 6.7605 9.23531 5.75582 8.00041 5.75582Z" />
        <path fill="white" d="M11.4319 5.38376C11.803 5.38376 12.1038 5.08295 12.1038 4.71188C12.1038 4.34082 11.803 4.04001 11.4319 4.04001C11.0608 4.04001 10.76 4.34082 10.76 4.71188C10.76 5.08295 11.0608 5.38376 11.4319 5.38376Z" />
        <path fill="white" d="M10.6855 13.8258H5.31047C3.58196 13.8258 2.17505 12.4194 2.17505 10.6904V5.31541C2.17505 3.58645 3.58196 2.17999 5.31047 2.17999H10.6855C12.414 2.17999 13.8209 3.58645 13.8209 5.31541V10.6904C13.8209 12.4194 12.414 13.8258 10.6855 13.8258ZM5.31047 3.07583C4.07556 3.07583 3.07088 4.0805 3.07088 5.31541V10.6904C3.07088 11.9253 4.07556 12.93 5.31047 12.93H10.6855C11.9204 12.93 12.925 11.9253 12.925 10.6904V5.31541C12.925 4.0805 11.9204 3.07583 10.6855 3.07583H5.31047Z" />
    </g>
    <defs>
        <radialGradient id="paintRadial1" cx="0" cy="0" r="1" gradientUnits="userSpaceOnUse" gradientTransform="translate(5.94806 16.0116) scale(19.9445 19.9445)">
            <stop stop-color="#FFDD55" />
            <stop offset="0.328" stop-color="#FF543F" />
            <stop offset="0.3484" stop-color="#FC5245" />
            <stop offset="0.5039" stop-color="#E64771" />
            <stop offset="0.6433" stop-color="#D53E91" />
            <stop offset="0.7606" stop-color="#CC39A4" />
            <stop offset="0.8414" stop-color="#C837AB" />
        </radialGradient>
        <radialGradient id="paintRadial2" cx="0" cy="0" r="1" gradientUnits="userSpaceOnUse" gradientTransform="translate(2.5746 -0.199729) scale(13.2434 8.82408)">
            <stop stop-color="#4168C9" />
            <stop offset="0.9988" stop-color="#4168C9" stop-opacity="0" />
        </radialGradient>
        <clipPath id="clipPath">
            <rect width="16" height="16" fill="white" />
        </clipPath>
    </defs>
</svg>
