<svg width="16" height="17" viewBox="0 0 16 17" fill="none" xmlns="http://www.w3.org/2000/svg">
    <path fill="#006699" d="M0 1.1534C0 0.516562 0.52935 -9.53674e-06 1.18237 -9.53674e-06H14.8176C15.4706 -9.53674e-06 16 0.516562 16 1.1534V14.9481C16 15.5851 15.4706 16.1015 14.8176 16.1015H1.18237C0.52935 16.1015 0 15.5851 0 14.9481V1.1534Z" />
    <path fill="white" fill-rule="evenodd" clip-rule="evenodd" d="M4.85004 13.4786V6.2079H2.43339V13.4786H4.85004ZM3.6417 5.21521C4.48444 5.21521 5.00898 4.6569 5.00898 3.95917C4.99327 3.24574 4.48444 2.70292 3.65769 2.70292C2.83103 2.70292 2.29053 3.24574 2.29053 3.95917C2.29053 4.6569 2.81495 5.21521 3.62595 5.21521H3.6417Z" />
    <path fill="white" fill-rule="evenodd" clip-rule="evenodd" d="M6.18726 13.4786H8.60389V9.41835C8.60389 9.20105 8.6196 8.98397 8.68341 8.82863C8.85811 8.39446 9.25575 7.9448 9.92336 7.9448C10.7978 7.9448 11.1476 8.61155 11.1476 9.58897V13.4786H13.5641V9.3097C13.5641 7.07646 12.3718 6.03729 10.7819 6.03729C9.47815 6.03729 8.90581 6.766 8.58782 7.26235H8.60396V6.2079H6.18732C6.21903 6.89014 6.18726 13.4786 6.18726 13.4786Z" />
</svg>
