<svg width="16" height="20" viewBox="0 0 16 20" fill="none" xmlns="http://www.w3.org/2000/svg">
    <g clip-path="url(#clipPath)">
        <path fill="#BCBBBB" d="M13.44 17.28V12.16H15.36V19.2H0V12.16H1.92V17.28H13.44Z" />
        <path fill="#F48024" d="M10.944 0.127991L9.59995 1.15199L14.656 7.93599L16 6.91199L10.944 0.127991ZM13.312 9.53599L6.78395 4.09599L7.87195 2.81599L14.4 8.25599L13.312 9.53599ZM4.60795 7.87199L12.288 11.456L12.992 9.91999L5.31195 6.33599L4.60795 7.87199ZM3.45595 12.224L12.1344 13.4784L12.2432 11.9552L3.75675 10.3232L3.45595 12.224ZM12.16 16H3.19995V14.08H12.16V16Z" />
    </g>
    <defs>
        <clipPath id="clipPath">
            <rect fill="white" width="16" height="19.2" />
        </clipPath>
    </defs>
</svg>
