<svg width="16" height="16" viewBox="0 0 16 16" fill="none" xmlns="http://www.w3.org/2000/svg">
    <g clip-path="url(#clipPath)">
        <path fill="#1B9DF0" d="M8 16C12.4183 16 16 12.4183 16 8C16 3.58172 12.4183 0 8 0C3.58172 0 0 3.58172 0 8C0 12.4183 3.58172 16 8 16Z" />
        <path fill="white" d="M6.53601 12.22C10.084 12.22 12.024 9.27999 12.024 6.73199C12.024 6.64799 12.024 6.56399 12.02 6.48399C12.396 6.21199 12.724 5.87199 12.984 5.48399C12.64 5.63599 12.268 5.73999 11.876 5.78799C12.276 5.54799 12.58 5.17199 12.724 4.71999C12.352 4.93999 11.94 5.09999 11.5 5.18799C11.148 4.81199 10.648 4.57999 10.092 4.57999C9.02801 4.57999 8.16401 5.44399 8.16401 6.50799C8.16401 6.65999 8.18001 6.80799 8.21601 6.94799C6.61201 6.86799 5.19201 6.09999 4.24001 4.93199C4.07601 5.21599 3.98001 5.54799 3.98001 5.89999C3.98001 6.56799 4.32001 7.15999 4.84001 7.50399C4.52401 7.49599 4.22801 7.40799 3.96801 7.26399C3.96801 7.27199 3.96801 7.27999 3.96801 7.28799C3.96801 8.22399 4.63201 8.99999 5.51601 9.17999C5.35601 9.22399 5.18401 9.24799 5.00801 9.24799C4.88401 9.24799 4.76401 9.23599 4.64401 9.21199C4.88801 9.97999 5.60001 10.536 6.44401 10.552C5.78401 11.068 4.95201 11.376 4.04801 11.376C3.89201 11.376 3.74001 11.368 3.58801 11.348C4.43201 11.9 5.44801 12.22 6.53601 12.22Z" />
    </g>
    <defs>
        <clipPath id="clipPath">
            <rect fill="white" width="16" height="16" />
        </clipPath>
    </defs>
</svg>
